<svg id="Layer_1" data-name="Layer 1" xmlns="http://www.w3.org/2000/svg" viewBox="0 0 105.88 23.89"><defs><style>.cls-1{fill:#fff;}</style></defs><path class="cls-1" d="M34.56,5.65V19.39a2.6,2.6,0,0,1-1.27,2.23l-8.87,5.32V20.86H9.66a2.6,2.6,0,0,1-2.6-2.6V5.65a2.6,2.6,0,0,1,2.6-2.59H32A2.6,2.6,0,0,1,34.56,5.65Z" transform="translate(-7.06 -3.06)"/><rect class="cls-1" x="6.19" y="8.99" width="11.11" height="1.05" rx="0.53"/><rect class="cls-1" x="6.19" y="10.89" width="3.18" height="1.05" rx="0.53"/><rect class="cls-1" x="17.26" y="8.53" width="11.11" height="1.05" rx="0.53" transform="translate(38.57 15.05) rotate(-180)"/><rect class="cls-1" x="25.19" y="10.42" width="3.18" height="1.05" rx="0.53" transform="translate(46.5 18.85) rotate(-180)"/><path class="cls-1" d="M49.53,8.44,48.24,9.67a4,4,0,0,0-3-1.39,3.25,3.25,0,0,0-3.3,3.3,3.48,3.48,0,0,0,.42,1.72,3,3,0,0,0,1.2,1.18,3.39,3.39,0,0,0,1.71.43,3.51,3.51,0,0,0,1.47-.3,5.26,5.26,0,0,0,1.47-1.09l1.25,1.31a7,7,0,0,1-2,1.45,5.59,5.59,0,0,1-2.19.41,5,5,0,0,1-3.71-1.44,5,5,0,0,1-1.44-3.68A5,5,0,0,1,40.78,9a4.82,4.82,0,0,1,1.88-1.81,5.31,5.31,0,0,1,2.64-.69,5.63,5.63,0,0,1,4.23,1.95Z" transform="translate(-7.06 -3.06)"/><path class="cls-1" d="M51.63,6.49h1.79V10a4.26,4.26,0,0,1,1.06-.69,2.79,2.79,0,0,1,1.09-.22,2.41,2.41,0,0,1,1.8.74A2.56,2.56,0,0,1,58,11.7v4.74H56.22V13.3a7.62,7.62,0,0,0-.12-1.69,1.15,1.15,0,0,0-.4-.66,1.13,1.13,0,0,0-.71-.22,1.33,1.33,0,0,0-.94.36,1.85,1.85,0,0,0-.55,1,8.51,8.51,0,0,0-.08,1.48v2.88H51.63Z" transform="translate(-7.06 -3.06)"/><path class="cls-1" d="M65.72,9.26h1.8v7.18h-1.8v-.75a3.69,3.69,0,0,1-1.06.72,2.91,2.91,0,0,1-1.15.22,3.2,3.2,0,0,1-2.41-1.08,3.74,3.74,0,0,1-1-2.68,3.84,3.84,0,0,1,1-2.73,3.12,3.12,0,0,1,2.39-1.06,3.07,3.07,0,0,1,1.21.24,3.32,3.32,0,0,1,1,.73Zm-1.9,1.48a1.85,1.85,0,0,0-1.39.59,2.18,2.18,0,0,0-.55,1.52,2.17,2.17,0,0,0,.56,1.53,1.84,1.84,0,0,0,1.39.6,1.88,1.88,0,0,0,1.41-.59,2.18,2.18,0,0,0,.56-1.55,2.13,2.13,0,0,0-.56-1.52A1.89,1.89,0,0,0,63.82,10.74Z" transform="translate(-7.06 -3.06)"/><path class="cls-1" d="M70.24,6.61H72V9.26h1.07v1.55H72v5.63h-1.8V10.81h-.93V9.26h.93Z" transform="translate(-7.06 -3.06)"/><path class="cls-1" d="M75.07,6.73h2A6.47,6.47,0,0,1,79.32,7a2.35,2.35,0,0,1,1.1,1,2.91,2.91,0,0,1,.42,1.58,2.73,2.73,0,0,1-.46,1.6,2.81,2.81,0,0,1-1.39,1l2.3,4.31h-2l-2.18-4.11h-.17v4.11H75.07Zm1.85,3.8h.58a2.28,2.28,0,0,0,1.21-.23.86.86,0,0,0,.34-.77A.92.92,0,0,0,78.88,9a.88.88,0,0,0-.44-.34,3.28,3.28,0,0,0-1-.1h-.51Z" transform="translate(-7.06 -3.06)"/><path class="cls-1" d="M90.47,13.37h-5.8a2,2,0,0,0,.67,1.22,2.13,2.13,0,0,0,1.39.46,2.4,2.4,0,0,0,1.74-.71l1.52.71a3.49,3.49,0,0,1-1.36,1.19,4.24,4.24,0,0,1-1.88.39A3.74,3.74,0,0,1,84,15.56a3.66,3.66,0,0,1-1.06-2.67A3.76,3.76,0,0,1,84,10.16a3.57,3.57,0,0,1,2.66-1.08,3.71,3.71,0,0,1,2.76,1.08A3.93,3.93,0,0,1,90.47,13ZM88.66,12a1.78,1.78,0,0,0-.7-1,2.06,2.06,0,0,0-1.22-.38,2.15,2.15,0,0,0-1.32.42,2.44,2.44,0,0,0-.67.94Z" transform="translate(-7.06 -3.06)"/><path class="cls-1" d="M94.39,9.26v.79a3.48,3.48,0,0,1,1.06-.73,3,3,0,0,1,1.21-.24,3.12,3.12,0,0,1,2.39,1.06,3.84,3.84,0,0,1,1,2.73,3.74,3.74,0,0,1-1,2.68,3.2,3.2,0,0,1-2.41,1.08,3,3,0,0,1-1.16-.22,3.69,3.69,0,0,1-1.06-.72v3.38H92.6V9.26Zm1.89,1.48a1.89,1.89,0,0,0-1.41.58,2.13,2.13,0,0,0-.56,1.52,2.18,2.18,0,0,0,.56,1.55,1.89,1.89,0,0,0,1.41.59,1.82,1.82,0,0,0,1.39-.6,2.13,2.13,0,0,0,.57-1.53,2.14,2.14,0,0,0-.56-1.52A1.84,1.84,0,0,0,96.28,10.74Z" transform="translate(-7.06 -3.06)"/><path class="cls-1" d="M102,6.49h1.8v10H102Z" transform="translate(-7.06 -3.06)"/><path class="cls-1" d="M105.32,9.26h1.85L109,13.77l2.06-4.51h1.85l-4.5,9.81h-1.86l1.47-3.16Z" transform="translate(-7.06 -3.06)"/></svg>